<?xml version="1.0" standalone="no"?>
<!DOCTYPE svg PUBLIC "-//W3C//DTD SVG 20010904//EN"
 "http://www.w3.org/TR/2001/REC-SVG-20010904/DTD/svg10.dtd">
<svg version="1.0" xmlns="http://www.w3.org/2000/svg"
 width="148.000000pt" height="22.000000pt" viewBox="0 0 148.000000 22.000000"
 preserveAspectRatio="xMidYMid meet">

<g transform="translate(0.000000,22.000000) scale(0.100000,-0.100000)"
fill="#000000" stroke="none">
<path d="M480 116 c0 -59 14 -80 52 -74 29 4 47 50 28 72 -7 9 -23 16 -36 16
-17 0 -24 6 -24 20 0 11 -4 20 -10 20 -5 0 -10 -24 -10 -54z m68 -27 c3 -26
-19 -46 -39 -33 -11 6 -12 48 -2 58 15 14 38 0 41 -25z"/>
<path d="M590 160 c0 -5 5 -10 10 -10 6 0 10 5 10 10 0 6 -4 10 -10 10 -5 0
-10 -4 -10 -10z"/>
<path d="M82 109 c-14 -23 -16 -69 -2 -69 22 0 41 72 22 84 -4 2 -13 -4 -20
-15z"/>
<path d="M590 85 c0 -25 5 -45 10 -45 6 0 10 20 10 45 0 25 -4 45 -10 45 -5 0
-10 -20 -10 -45z"/>
</g>
</svg>
