<svg width="1239" height="178" viewBox="0 0 1239 178" fill="none" xmlns="http://www.w3.org/2000/svg">
<g clip-path="url(#clip0_44_4907)">
<path d="M7.20564 92.992C7.20564 92.992 6.25315 89.5043 8.24095 87.9915C9.23485 87.6553 10.3116 87.5713 14.9084 89.9245C30.728 98.1185 57.3149 108.582 79.8019 99.2111C102.33 89.8404 87.1734 122.154 87.1734 122.154C87.1734 122.154 82.4109 141.946 55.12 136.021C32.3431 131.105 7.95106 108.035 7.20564 92.992Z" fill="white" fill-opacity="0.5"/>
<path d="M12.2159 0C12.2159 0 26.172 12.06 77.8549 55.3834C119.226 84.882 91.0655 129.76 75.0802 135.265C75.3287 113.834 72.2228 112.448 32.0111 79.8395C-7.12377 48.1558 -6.04704 30.7172 12.2159 0Z" fill="white"/>
<path d="M8.32396 87.9495C-1.57365 90.8909 -2.98168 119.507 21.5346 141.064C46.2993 162.873 46.2993 162.873 56.0727 178C64.6865 170.436 75.578 143.081 52.2627 124.676C15.6954 99.2531 8.32396 87.9495 8.32396 87.9495Z" fill="white"/>
</g>
<g clip-path="url(#clip1_44_4907)">
<path d="M278.057 74.2252C275.56 71.3795 272.546 69.2237 269.102 67.7578C265.227 66.1194 261.008 65.3433 256.789 65.4296C251.967 65.3433 247.145 66.2919 242.668 68.189C238.879 69.9136 235.435 72.5005 232.68 75.6911C230.011 78.9679 228.03 82.7621 226.911 86.815C225.619 91.1266 225.017 95.6968 225.017 100.181C225.017 104.751 225.619 109.321 226.997 113.719C228.202 117.772 230.355 121.48 233.283 124.584C236.296 127.775 240.085 130.189 244.132 131.742C249.642 133.639 255.497 134.242 261.266 133.552C272.116 132.173 276.765 128.034 280.037 123.722C285.72 116.047 284.084 114.754 284.084 114.754H271.685C270.307 114.754 267.38 120.618 258.253 120.618C251.967 120.618 249.556 119.669 246.37 116.737C243.529 114.15 241.893 110.011 241.549 104.406H283.912C285.117 104.406 285.376 103.63 285.462 102.509C285.72 97.6801 285.978 91.1266 283.653 83.9693C282.362 80.3476 280.468 77.0708 278.057 74.2252ZM241.635 92.1613C242.324 88.0222 243.701 84.6592 245.94 82.2447C248.351 79.5715 251.795 78.2781 256.358 78.2781C258.425 78.1918 260.491 78.623 262.3 79.4853C263.85 80.2614 265.227 81.3824 266.433 82.7621C267.552 84.228 268.413 85.8664 268.93 87.6773C269.36 89.1432 269.619 90.6092 269.705 92.1613H241.635Z" fill="white"/>
<path d="M472.824 43.7854V80.1751H437.005V48.4419C437.005 45.855 434.939 43.7854 432.356 43.7854H420.215V130.534C420.215 133.121 422.281 135.191 424.864 135.191H437.005V94.8344H472.824V130.448C472.824 133.035 474.891 135.105 477.474 135.105H489.615V48.4419C489.615 45.855 487.548 43.7854 484.965 43.7854H472.824Z" fill="white"/>
<path d="M543.171 65.2571V108.545C543.171 112.512 541.191 116.22 537.747 118.203C528.275 123.722 518.373 116.824 518.373 107.769V69.9998C518.373 67.4129 516.307 65.3433 513.724 65.3433H501.583V109.408C501.583 123.636 513.121 135.191 527.328 135.191H534.216C548.338 135.191 559.962 123.636 559.962 109.408V69.9998C559.962 67.4129 557.895 65.3433 555.312 65.3433H543.171V65.2571Z" fill="white"/>
<path d="M603.875 65.2571C586.224 65.2571 571.845 77.8469 571.845 95.4381V105.01C571.845 122.687 586.224 135.191 603.875 135.191C621.527 135.191 635.906 122.687 635.906 105.01V95.4381C635.82 77.8469 621.527 65.2571 603.875 65.2571ZM619.03 106.131C619.03 114.409 612.228 120.014 603.875 120.014C595.609 120.014 588.721 114.495 588.721 106.131V94.3171C588.721 86.0389 595.523 80.4338 603.875 80.4338C612.141 80.4338 619.03 85.9526 619.03 94.3171V106.131Z" fill="white"/>
<path d="M603.875 65.2571C586.224 65.2571 571.845 77.8469 571.845 95.4381V105.01C571.845 122.687 586.224 135.191 603.875 135.191C621.527 135.191 635.906 122.687 635.906 105.01V95.4381C635.82 77.8469 621.527 65.2571 603.875 65.2571ZM619.03 106.131C619.03 114.409 612.228 120.014 603.875 120.014C595.609 120.014 588.721 114.495 588.721 106.131V94.3171C588.721 86.0389 595.523 80.4338 603.875 80.4338C612.141 80.4338 619.03 85.9526 619.03 94.3171V106.131Z" fill="white"/>
<path d="M213.996 65.4295V63.2737V62.6701C213.996 57.5824 213.996 52.4947 213.996 47.4933C213.996 45.1651 212.532 43.3542 210.293 42.7506C209.863 42.6644 209.432 42.5781 209.088 42.5781C205.127 42.5781 201.252 42.5781 197.378 42.5781C197.292 42.5781 197.119 42.5781 197.033 42.5781V63.1875V63.8773V69.6548V101.733C189.456 90.6953 181.965 79.6577 174.474 68.62L170.513 62.8425C166.122 56.2889 161.644 49.7353 157.167 43.1817C156.909 42.7506 156.564 42.5781 156.134 42.5781C151.57 42.5781 147.093 42.5781 142.615 42.5781H142.013V63.1875V73.9664C142.013 92.5062 142.013 110.96 142.013 129.499C142.013 131.569 142.529 133.294 144.251 134.587C144.251 134.587 144.768 134.932 145.715 135.191H158.975V134.587V126.826V74.3975C159.061 74.6562 159.147 74.7425 159.234 74.9149C168.274 88.5395 177.229 102.164 186.27 115.789C189.628 120.876 192.9 125.878 196.258 130.965C197.119 132.259 197.894 133.639 199.272 134.587C199.272 134.587 199.875 135.018 200.736 135.191H213.91V134.587V125.792L213.996 65.4295Z" fill="white"/>
<path d="M374.149 65.6019C371.997 74.3975 369.758 83.1069 367.605 91.8162C365.453 100.526 363.214 109.235 361.32 118.031C361.234 117.944 361.234 117.858 361.234 117.772C361.062 116.91 360.975 116.047 360.803 115.185C359.77 110.27 358.823 105.355 357.617 100.439C355.034 89.6605 352.279 78.8815 349.61 68.1026C349.351 67.154 349.093 66.2917 348.921 65.3432C348.749 65.3432 348.663 65.3432 348.49 65.3432C343.927 65.3432 339.363 65.3432 334.8 65.2569C334.455 65.2569 334.283 65.3432 334.197 65.6881C331.442 76.2083 328.686 86.6423 326.017 97.1626C324.467 103.371 322.917 109.58 321.368 115.702C321.195 116.478 321.023 117.168 320.851 117.944C320.851 118.031 320.765 118.117 320.679 118.203C320.593 118.117 320.593 118.031 320.506 118.031C320.506 117.944 320.506 117.944 320.506 117.858C319.473 112.77 318.526 107.683 317.407 102.681C314.996 91.9025 312.585 81.1235 310.174 70.3446C309.485 67.4127 306.988 65.2569 303.974 65.1707C300.014 65.0845 296.139 65.0845 292.178 65.0845C292.092 65.0845 292.092 65.0845 291.92 65.0845C298.292 87.9358 304.577 110.701 310.949 133.552L311.207 134.415C311.293 134.76 311.466 134.76 311.724 134.76C316.89 134.76 321.97 134.846 327.136 134.846C327.223 134.846 327.309 134.846 327.395 134.846C327.481 134.76 327.653 134.76 327.653 134.673V134.587L328.17 133.035C332.561 117.341 337.469 101.819 340.913 85.8663C340.999 86.4699 341.171 87.1597 341.258 87.7634C342.377 92.6786 343.41 97.5937 344.53 102.423C347.027 112.77 349.696 123.118 352.279 133.466L352.537 134.673C352.537 135.018 352.796 135.104 353.14 135.104C358.22 135.104 363.3 135.191 368.38 135.191C368.466 135.191 368.553 135.191 368.553 135.191C368.639 135.104 368.811 135.018 368.811 134.932V134.846L369.241 133.639C376.13 110.96 383.018 88.367 389.906 65.6881C384.654 65.6881 379.402 65.6019 374.149 65.6019Z" fill="white"/>
<path d="M1152.36 94.662C1152.36 92.7649 1152.53 90.8678 1152.96 89.057C1153.65 85.7802 1155.29 83.1932 1158.3 81.5548C1160.62 80.2614 1163.04 80.0889 1165.62 80.3476C1168.46 80.6063 1171.13 81.3824 1173.8 82.3309C1173.97 82.4172 1174.06 82.4172 1174.31 82.5034C1174.31 82.2447 1174.31 82.0722 1174.31 81.8998C1174.31 78.5367 1174.31 75.1737 1174.31 71.8107C1174.31 70.431 1173.8 69.4824 1172.76 68.6201C1171.56 67.6716 1170.18 66.9817 1168.72 66.6368C1163.81 65.3433 1158.82 65.2571 1153.82 66.2919C1146.76 67.844 1141.68 71.8107 1138.58 78.3643C1136.69 82.4172 1135.83 86.815 1135.83 91.299C1135.83 104.492 1135.83 117.686 1135.83 130.793C1135.83 132.087 1136.26 133.208 1137.12 134.156C1137.12 134.156 1137.81 135.018 1138.84 135.363C1139.53 135.536 1140.13 135.708 1140.73 135.708C1144.61 135.708 1148.48 135.708 1152.27 135.708H1152.53L1152.36 94.662Z" fill="white"/>
<path d="M1231.14 75.0012C1228.65 72.1556 1225.55 69.9136 1222.1 68.4476C1218.14 66.8092 1213.92 65.9469 1209.7 66.1194C1204.8 66.0331 1199.97 66.9817 1195.41 68.8788C1191.54 70.6034 1188.01 73.2766 1185.34 76.4671C1182.58 79.7439 1180.6 83.5381 1179.48 87.6772C1178.19 92.075 1177.59 96.7315 1177.59 101.302C1177.5 105.958 1178.19 110.529 1179.57 114.926C1180.86 119.066 1183.01 122.773 1185.94 125.878C1188.95 129.068 1192.83 131.569 1196.96 133.121C1202.56 135.018 1208.5 135.708 1214.27 135.018C1225.2 133.639 1229.94 129.413 1233.21 125.015C1238.98 117.255 1237.34 115.961 1237.34 115.961H1224.77C1223.39 115.961 1220.38 121.825 1211.17 121.825C1204.8 121.825 1202.3 120.876 1199.2 117.858C1196.27 115.271 1194.64 111.046 1194.29 105.441H1237.17C1238.38 105.441 1238.64 104.665 1238.72 103.458C1238.98 98.6286 1239.24 91.9026 1236.83 84.6591C1235.45 81.2099 1233.64 77.8468 1231.14 75.0012ZM1194.29 93.1098C1194.98 88.8845 1196.44 85.5215 1198.68 83.0207C1201.18 80.2613 1204.54 78.9679 1209.27 78.9679C1211.34 78.8816 1213.41 79.3128 1215.3 80.2613C1216.85 81.0374 1218.31 82.1584 1219.43 83.6244C1220.55 85.0903 1221.41 86.8149 1221.93 88.6258C1222.36 90.0917 1222.62 91.6439 1222.79 93.1961H1194.29V93.1098Z" fill="white"/>
<path d="M889.396 128.723C887.329 129.413 885.349 130.276 883.283 130.707C871.572 133.208 860.723 131.569 851.51 123.463C845.483 118.117 842.555 111.305 842.555 103.199C842.555 99.3185 842.297 95.3519 842.728 91.5577C843.847 81.1237 849.53 73.5353 858.915 69.31C871.486 63.6187 883.885 64.3948 895.165 72.5868C902.398 77.8469 906.014 85.2628 906.014 94.2309C906.1 106.045 906.014 117.858 906.014 129.586C906.014 134.846 905.497 140.02 903.517 145.021C900.331 153.213 894.304 158.56 886.124 161.233C877.255 164.078 868.387 163.906 859.604 160.629C853.146 158.215 849.185 153.213 846.172 147.263C846.086 147.005 846 146.746 845.913 146.487C845.397 144.935 845.655 144.59 847.291 144.59C850.821 144.59 854.266 144.59 857.796 144.59C858.485 144.59 859.26 144.849 859.776 145.28C865.201 150.368 871.659 151.057 878.461 149.592C884.058 148.384 887.243 144.418 888.621 138.899C889.568 135.622 889.396 132.173 889.396 128.723ZM889.31 98.8874C889.31 97.0765 889.31 95.2657 889.31 93.4548C889.31 88.6258 887.157 84.9179 883.024 82.4172C878.461 79.744 873.639 79.3991 868.645 80.9512C862.359 82.9346 859.087 87.5048 859.087 94.0584C859.087 97.4214 859.087 100.784 859.087 104.148C859.087 109.063 861.154 112.771 865.373 115.271C870.023 118.031 875.103 118.376 880.183 116.565C886.21 114.495 889.224 110.011 889.224 103.63C889.31 102.078 889.31 100.44 889.31 98.8874Z" fill="white"/>
<path d="M787.88 135.881C787.449 135.881 787.105 135.967 786.847 135.967C783.058 135.967 779.27 135.967 775.567 135.967C772.381 135.967 770.659 134.242 770.659 131.052C770.659 109.753 770.659 88.4534 770.659 67.1542C770.659 66.7231 770.659 66.2057 770.659 65.6021C772.553 65.6021 774.362 65.6021 776.17 65.6021C778.495 65.6021 780.82 65.6021 783.144 65.6021C786.158 65.6021 787.966 67.4129 788.052 70.431C788.052 70.6035 788.052 70.6897 788.052 71.0346C790.98 67.7578 794.854 67.2404 798.729 66.8093C804.498 66.2057 810.181 66.6368 815.519 68.8788C822.408 71.7245 826.799 76.8984 829.038 83.9694C830.329 88.0222 830.846 92.1614 830.846 96.4729C830.846 108.89 830.846 121.394 830.846 133.811C830.846 134.415 830.846 135.105 830.846 135.708C830.415 135.708 830.071 135.795 829.727 135.795C826.024 135.795 822.236 135.795 818.533 135.795C815.347 135.795 813.797 134.156 813.797 131.052C813.797 119.755 813.797 108.459 813.797 97.1628C813.797 93.7998 813.281 90.523 811.473 87.5911C808.459 82.7621 803.895 81.2962 798.643 81.8998C793.649 82.5034 790.549 85.694 789.086 90.2643C788.311 92.5925 787.966 95.1795 787.88 97.5939C787.794 109.666 787.794 121.653 787.794 133.725C787.88 134.501 787.88 135.105 787.88 135.881Z" fill="white"/>
<path d="M1092.6 65.6882C1074.95 65.6882 1060.57 78.278 1060.57 95.8693V105.441C1060.57 123.118 1074.95 135.622 1092.6 135.622C1110.25 135.622 1124.63 123.118 1124.63 105.441V95.9555C1124.55 78.3643 1110.17 65.6882 1092.6 65.6882ZM1107.67 106.648C1107.67 114.926 1100.87 120.531 1092.52 120.531C1084.25 120.531 1077.36 115.013 1077.36 106.648V94.8345C1077.36 86.5563 1084.16 80.9512 1092.52 80.9512C1100.78 80.9512 1107.67 86.47 1107.67 94.8345V106.648Z" fill="white"/>
<path d="M957.676 91.0403C957.763 88.7121 957.504 86.4701 956.643 84.4005C955.696 82.2447 953.802 81.0375 951.735 80.2614C948.808 79.1404 945.708 79.0542 942.608 79.0542C936.323 79.0542 930.295 80.6063 924.268 81.986C922.546 82.4172 922.116 82.1585 922.029 80.4339C921.943 76.8984 921.943 73.3629 922.029 69.9136C922.029 68.6202 922.46 68.1028 923.838 67.9303C927.884 67.3267 932.018 66.6368 936.064 66.2057C939.509 65.8607 942.953 65.6021 946.397 65.6021C951.219 65.6021 956.041 66.2919 960.604 68.1028C968.44 71.2071 972.831 77.0708 974.036 85.2628C974.381 87.4186 974.467 89.5744 974.467 91.644C974.467 102.337 974.467 113.029 974.467 123.722C974.467 126.481 973.434 128.637 971.367 130.276C968.784 132.345 965.77 133.466 962.671 134.156C952.166 136.484 941.661 136.829 931.329 133.897C927.11 132.69 923.407 130.534 920.566 126.999C917.724 123.463 916.433 119.324 916.26 114.926C916.002 105.872 920.135 99.4048 927.884 95.0932C932.448 92.5925 937.356 91.2128 942.522 91.0403C947.43 90.7816 952.338 91.0403 957.246 91.1266C957.246 91.0403 957.418 91.0403 957.676 91.0403ZM957.59 104.148C955.18 103.975 952.941 103.803 950.702 103.716C947 103.544 943.211 103.716 939.681 104.924C937.614 105.613 935.806 106.648 934.601 108.545C930.984 114.323 934.342 121.48 941.058 122.342C946.139 123.032 951.305 122.774 956.385 121.997C957.849 121.739 957.676 121.997 957.676 120.359C957.676 115.358 957.677 110.27 957.59 105.269C957.59 104.924 957.59 104.665 957.59 104.148Z" fill="white"/>
<path d="M985.403 157.352C985.403 156.921 985.403 156.576 985.403 156.231C985.403 149.678 985.403 143.124 985.403 136.484C985.403 122.946 985.316 109.408 985.403 95.9554C985.575 83.1932 991.602 73.8802 1003.14 68.7063C1015.28 63.3599 1027.25 64.4809 1038.01 72.5005C1045.5 78.1055 1049.12 85.9526 1049.38 95.3518C1049.46 98.6286 1049.46 101.905 1049.38 105.096C1049.12 117.944 1043.09 127.171 1031.55 132.604C1026.3 135.105 1020.71 135.794 1015.02 135.449C1010.72 135.191 1006.67 134.156 1002.71 132.345C1002.62 132.259 1002.45 132.259 1002.19 132.173C1002.19 133.725 1002.19 135.105 1002.19 136.57C1002.19 141.917 1002.19 147.263 1002.19 152.61C1002.19 154.765 1000.56 156.749 998.404 157.094C997.974 157.18 997.457 157.18 997.027 157.18C993.496 157.18 989.966 157.18 986.436 157.18C986.091 157.352 985.833 157.352 985.403 157.352ZM1032.42 100.698C1032.42 98.6286 1032.42 96.5591 1032.42 94.4895C1032.33 89.833 1030.35 86.0388 1026.39 83.5381C1020.88 80.0026 1015.02 79.8302 1009.25 82.762C1004.6 85.1765 1002.19 89.1432 1002.11 94.4033C1002.02 98.6286 1002.02 102.768 1002.11 106.993C1002.19 111.477 1004.09 115.185 1007.79 117.686C1013.21 121.221 1018.98 121.566 1024.75 118.807C1029.75 116.392 1032.33 112.253 1032.42 106.648C1032.5 104.665 1032.5 102.681 1032.42 100.698Z" fill="white"/>
<path d="M666.301 111.65C670.606 114.237 674.911 116.134 679.475 117.513C685.244 119.238 691.185 120.014 697.212 119.497C699.02 119.324 700.915 118.893 702.637 118.289C705.736 117.341 707.545 115.099 708.061 111.822C708.578 108.459 707.545 105.527 704.789 103.63C702.464 102.164 699.881 100.871 697.298 99.6634C692.907 97.6801 688.343 95.9554 683.866 94.0583C680.25 92.5062 676.891 90.5228 673.792 88.0221C669.228 84.2279 666.731 79.3127 666.128 73.5352C665.009 62.7563 669.228 54.6505 678.527 49.1317C685.932 44.6477 694.112 43.1817 702.723 43.4404C709.18 43.6991 715.294 45.0788 721.235 47.4933C723.302 48.3556 723.732 49.0455 723.732 51.2875C723.732 56.0302 723.732 60.773 723.732 65.4295C723.732 65.9469 723.56 66.5505 723.474 67.3266C722.613 66.8092 722.01 66.4643 721.407 66.0331C716.844 62.8425 711.764 60.9454 706.253 60.0831C701.173 59.307 696.179 59.1346 691.357 61.2041C688.688 62.4114 686.535 64.136 685.932 67.3266C685.244 70.7758 686.449 73.9664 689.377 75.8635C693.51 78.5367 698.073 80.3475 702.551 82.0722C707.717 84.0555 712.797 86.2113 717.446 89.3156C722.268 92.5062 725.712 96.8177 727.004 102.509C729.501 112.857 726.057 123.55 715.983 129.672C711.419 132.431 706.425 134.07 701.173 135.018C695.662 135.967 690.151 136.226 684.641 135.622C678.614 135.018 672.845 133.466 667.334 130.879C666.473 130.448 666.128 129.931 666.128 128.982C666.128 123.636 666.128 118.376 666.128 113.029C666.128 112.598 666.215 112.167 666.301 111.65Z" fill="white"/>
<path d="M738.887 69.3098C743.192 69.3098 747.325 69.2236 751.458 69.3098C753.783 69.396 755.677 71.3794 755.763 73.7938C755.763 74.1388 755.763 74.4837 755.763 74.8286C755.763 94.4032 755.763 113.891 755.763 133.466C755.763 134.242 755.763 135.018 755.763 135.881C755.419 135.881 755.16 135.967 754.988 135.967C751.372 135.967 747.755 135.967 744.053 135.967C740.781 135.967 738.887 133.983 738.887 130.793C738.887 110.615 738.887 90.5228 738.887 70.3446C738.887 69.9997 738.887 69.6547 738.887 69.3098Z" fill="white"/>
<path d="M747.411 62.5837C742.245 62.5837 737.939 58.3584 737.939 53.1845C737.939 47.9244 742.159 43.6128 747.411 43.699C752.577 43.699 756.796 47.9244 756.796 53.1845C756.796 58.2721 752.577 62.4975 747.411 62.5837Z" fill="white"/>
</g>
<defs>
<clipPath id="clip0_44_4907">
<rect width="99.3488" height="178" fill="white"/>
</clipPath>
<clipPath id="clip1_44_4907">
<rect width="1096.71" height="120.638" fill="white" transform="translate(141.927 42.5781)"/>
</clipPath>
</defs>
</svg>
