<svg width="204" height="28" viewBox="0 0 204 28" fill="none" xmlns="http://www.w3.org/2000/svg">
<g clip-path="url(#clip0)">
<path d="M31.2056 6.2085V13.1243H24.1006V7.09783C24.1006 6.86197 24.003 6.63576 23.8293 6.46897C23.6556 6.30219 23.42 6.2085 23.1744 6.2085H20.7759V22.6894C20.7759 22.8062 20.7999 22.9218 20.8464 23.0297C20.893 23.1376 20.9612 23.2357 21.0472 23.3182C21.1332 23.4008 21.2353 23.4663 21.3477 23.511C21.4601 23.5557 21.5805 23.5787 21.7022 23.5787H24.1006V15.914H31.2056V22.6894C31.2056 22.8062 31.2296 22.9218 31.2761 23.0297C31.3227 23.1376 31.3909 23.2357 31.4769 23.3182C31.5629 23.4008 31.665 23.4663 31.7774 23.511C31.8898 23.5557 32.0102 23.5787 32.1318 23.5787H34.5302V7.09783C34.5296 6.86175 34.4315 6.63555 34.2574 6.46883C34.0833 6.30211 33.8475 6.2085 33.6016 6.2085H31.2056Z" fill="#F6F9FF"/>
<path d="M45.1501 10.304V18.535C45.1541 18.9039 45.0571 19.2673 44.8689 19.5889C44.6807 19.9105 44.4078 20.179 44.0776 20.3675C42.1959 21.4113 40.2484 20.1054 40.2484 18.3852V11.1933C40.2478 10.9572 40.1497 10.731 39.9756 10.5643C39.8015 10.3976 39.5657 10.304 39.3198 10.304H36.9214V18.6825C36.9259 19.9803 37.4648 21.2237 38.4205 22.1414C39.3763 23.0591 40.6713 23.5765 42.0229 23.5809H43.3878C44.7386 23.5753 46.0323 23.0573 46.987 22.1397C47.9417 21.2222 48.48 19.9795 48.4845 18.6825V11.1933C48.4845 10.9574 48.3869 10.7312 48.2132 10.5644C48.0395 10.3976 47.8039 10.304 47.5582 10.304H45.1501Z" fill="#F6F9FF"/>
<path d="M57.1861 10.2947C53.6981 10.2947 50.8488 12.6912 50.8488 16.0379V17.8494C50.8488 21.1985 53.703 23.5786 57.1861 23.5786C60.6716 23.5786 63.5233 21.1985 63.5233 17.8494V16.0379C63.5258 12.6912 60.6716 10.2947 57.1861 10.2947ZM60.1841 18.067C60.1841 19.6515 58.8338 20.7046 57.1861 20.7046C55.5384 20.7046 54.1856 19.6515 54.1856 18.067V15.8062C54.1856 14.2242 55.536 13.1687 57.1861 13.1687C58.8362 13.1687 60.1841 14.2242 60.1841 15.8062V18.067Z" fill="#F6F9FF"/>
<path d="M72.2762 10.2948C71.2307 10.2921 70.1984 10.5194 69.2587 10.9595V7.08382C69.2587 6.84774 69.1612 6.62129 68.9876 6.45413C68.8139 6.28697 68.5784 6.19276 68.3325 6.19214H65.9268V17.8495C65.9268 21.1986 68.7785 23.5787 72.264 23.5787C75.752 23.5787 78.6013 21.1986 78.6013 17.8495V16.0381C78.6159 12.6913 75.7641 10.2948 72.2762 10.2948ZM75.2742 18.0672C75.2742 19.6516 73.9263 20.7048 72.2762 20.7048C70.6261 20.7048 69.2758 19.6516 69.2758 18.0672V15.8064C69.2758 14.2243 70.6261 13.1688 72.2762 13.1688C73.9263 13.1688 75.2742 14.2243 75.2742 15.8064V18.0672Z" fill="#F6F9FF"/>
<path d="M83.4297 10.2924H81.0386V22.6963C81.0386 22.9322 81.1362 23.1584 81.3099 23.3252C81.4836 23.492 81.7191 23.5857 81.9648 23.5857H84.3632V11.1934C84.3645 11.0751 84.3413 10.9578 84.2949 10.8482C84.2485 10.7386 84.1798 10.639 84.093 10.5552C84.0061 10.4713 83.9027 10.4049 83.7888 10.3598C83.6749 10.3147 83.5529 10.2917 83.4297 10.2924Z" fill="#F6F9FF"/>
<path d="M82.6934 9.30008C83.0603 9.30008 83.4189 9.19562 83.7239 8.99992C84.029 8.80422 84.2667 8.52607 84.4071 8.20063C84.5475 7.87519 84.5842 7.51709 84.5127 7.1716C84.4411 6.82612 84.2644 6.50877 84.005 6.25969C83.7456 6.01061 83.4151 5.84098 83.0553 5.77226C82.6955 5.70354 82.3225 5.73881 81.9836 5.87361C81.6447 6.00842 81.355 6.23669 81.1512 6.52958C80.9474 6.82247 80.8386 7.1668 80.8386 7.51906C80.8382 7.75303 80.886 7.98477 80.9791 8.20099C81.0722 8.41721 81.2088 8.61368 81.3811 8.77912C81.5534 8.94457 81.758 9.07574 81.9832 9.16514C82.2084 9.25453 82.4498 9.30039 82.6934 9.30008Z" fill="#F6F9FF"/>
<path d="M10.7461 7.41369C10.7461 3.95462 8.9912 0.980009 7.6555 0.0110965C7.6555 0.0110965 7.55313 -0.0450758 7.56044 0.0953464C7.44832 6.77476 3.90433 8.58621 1.94221 11.0249C-2.56699 16.6418 1.62535 22.8203 5.89569 23.9624C8.28435 24.599 5.34484 22.832 4.9646 19.0992C4.50393 14.5916 10.7461 11.1489 10.7461 7.41369Z" fill="#F6F9FF"/>
<path d="M12.7911 9.68842C12.7848 9.68222 12.777 9.67752 12.7684 9.67469C12.7599 9.67186 12.7507 9.67098 12.7418 9.67211C12.7328 9.67325 12.7242 9.67636 12.7167 9.68122C12.7092 9.68609 12.7029 9.69256 12.6985 9.70012C12.6254 10.5403 11.7235 12.3401 10.5974 13.99C6.75121 19.5929 8.94244 22.2936 10.1758 23.7423C10.8899 24.5849 10.1758 23.7423 11.9624 22.8834C13.0507 22.2495 13.9672 21.3772 14.637 20.3379C15.3068 19.2986 15.7108 18.1218 15.8159 16.9038C15.9327 15.5579 15.7199 14.2045 15.1947 12.9517C14.6695 11.6988 13.8464 10.5813 12.7911 9.68842Z" fill="#F6F9FF"/>
<path d="M102.127 15.5885C101.418 14.8255 100.131 14.1187 98.193 13.4353C96.4307 12.7707 95.7385 12.3681 95.468 12.1458C95.2982 11.9995 95.1651 11.8182 95.0786 11.6156C94.9921 11.413 94.9544 11.1942 94.9683 10.9756C94.9657 10.7304 95.03 10.4888 95.1549 10.2749C95.2798 10.0609 95.4608 9.88213 95.68 9.75626C96.297 9.38756 97.0162 9.20797 97.7421 9.24138C99.1602 9.21934 100.555 9.59247 101.756 10.3156L102.307 10.6503C102.38 10.6362 102.407 10.5262 102.417 10.4537V7.44866C102.4 7.35378 102.359 7.26441 102.297 7.18847C102.235 7.11254 102.155 7.05239 102.064 7.01335C100.723 6.46847 99.283 6.18523 97.8274 6.18018C95.9896 6.21294 94.415 6.65996 93.1548 7.50951C91.7899 8.43162 91.1001 9.67435 91.1001 11.2049C91.0701 12.1958 91.3896 13.1673 92.0068 13.9619C92.6137 14.7202 93.8593 15.4527 95.8116 16.197C97.2936 16.7212 98.2832 17.1705 98.7487 17.5356C98.9239 17.6762 99.0676 17.8493 99.1712 18.0446C99.2749 18.2398 99.3363 18.4532 99.3518 18.6719C99.3673 18.8905 99.3365 19.1099 99.2613 19.3169C99.1862 19.5238 99.0682 19.714 98.9144 19.876C98.444 20.316 97.5714 20.5266 96.321 20.5009C94.4991 20.4387 92.7249 19.9251 91.1708 19.0101C91.1708 19.0101 91.1269 19.0405 91.1269 19.2254V22.3919C91.1422 22.4351 91.1666 22.4748 91.1984 22.5086C91.2303 22.5424 91.269 22.5696 91.3122 22.5885C92.7874 23.2639 94.4068 23.5982 96.0407 23.5644C98.115 23.5644 99.8382 23.1174 101.159 22.2375C101.806 21.8332 102.335 21.2771 102.695 20.6218C103.056 19.9665 103.236 19.2338 103.219 18.4929C103.252 17.4267 102.862 16.3883 102.127 15.5885Z" fill="#F6F9FF"/>
<path d="M203.611 13.8894C203.389 13.1947 203.018 12.5522 202.522 12.0031C202.028 11.4635 201.416 11.0352 200.73 10.7487C199.951 10.4347 199.113 10.28 198.268 10.2946C197.294 10.2742 196.328 10.4587 195.436 10.8352C194.664 11.1732 193.98 11.6712 193.432 12.2933C192.893 12.9256 192.493 13.6565 192.258 14.4418C192.001 15.291 191.873 16.1716 191.88 17.0559C191.871 17.942 192.003 18.8242 192.27 19.6725C192.521 20.473 192.964 21.206 193.563 21.8124C194.163 22.4188 194.902 22.8818 195.721 23.1643C196.822 23.5362 197.997 23.6603 199.155 23.5271C201.322 23.2486 202.27 22.4528 202.914 21.6103C204.05 20.1242 203.726 19.8667 203.726 19.8667H201.235C200.952 19.8667 200.369 20.9971 198.527 20.9971C197.266 20.9971 196.777 20.8052 196.148 20.2459C195.58 19.7403 195.253 18.9376 195.173 17.861H203.67C203.913 17.861 203.962 17.7136 203.972 17.4889C204.016 16.5598 204.069 15.2773 203.611 13.8894ZM200.862 15.4902H195.231C195.318 14.7809 195.614 14.1102 196.084 13.5571C196.572 13.0375 197.254 12.7848 198.183 12.7848C198.594 12.7721 199.002 12.8523 199.375 13.0188C199.693 13.17 199.972 13.3875 200.191 13.6554C200.414 13.9427 200.579 14.2673 200.679 14.6126C200.774 14.8976 200.835 15.192 200.862 15.4902Z" fill="#F6F9FF"/>
<path d="M165.553 17.634V15.8576C165.553 12.5811 162.755 10.2407 159.335 10.2407C155.923 10.2407 153.118 12.5811 153.118 15.8576V27.5969H155.47C155.589 27.5969 155.707 27.5743 155.817 27.5304C155.927 27.4865 156.027 27.4222 156.112 27.3411C156.196 27.26 156.263 27.1637 156.308 27.0578C156.354 26.9519 156.377 26.8385 156.376 26.7239V22.6213C157.298 23.0514 158.311 23.2724 159.335 23.2672C162.755 23.2672 165.553 20.9175 165.553 17.634ZM162.277 17.868C162.277 19.4197 160.954 20.4424 159.335 20.4424C157.717 20.4424 156.393 19.408 156.393 17.868V15.64C156.393 14.086 157.717 13.0515 159.335 13.0515C160.954 13.0515 162.277 14.0906 162.277 15.64V17.868Z" fill="#F6F9FF"/>
<path d="M107.826 10.2924H105.43V22.6963C105.43 22.9322 105.527 23.1584 105.701 23.3252C105.875 23.492 106.11 23.5857 106.356 23.5857H108.754V11.1934C108.755 11.0756 108.732 10.9588 108.686 10.8497C108.64 10.7405 108.571 10.6413 108.485 10.5575C108.399 10.4738 108.296 10.4073 108.183 10.3618C108.07 10.3162 107.948 10.2927 107.826 10.2924Z" fill="#F6F9FF"/>
<path d="M107.092 9.30008C107.459 9.29962 107.817 9.19476 108.122 8.99878C108.427 8.8028 108.664 8.52448 108.804 8.199C108.944 7.87352 108.98 7.51549 108.909 7.17016C108.837 6.82483 108.66 6.50771 108.4 6.25886C108.141 6.01002 107.81 5.84062 107.451 5.77209C107.091 5.70356 106.718 5.73896 106.379 5.87383C106.04 6.0087 105.751 6.23698 105.547 6.52982C105.344 6.82265 105.235 7.1669 105.235 7.51905C105.235 7.75314 105.283 7.98493 105.376 8.20117C105.47 8.4174 105.606 8.61384 105.779 8.77926C105.951 8.94467 106.156 9.07581 106.382 9.16518C106.607 9.25454 106.848 9.30039 107.092 9.30008Z" fill="#F6F9FF"/>
<path d="M117.251 10.4912C115.981 10.4912 114.57 10.7814 114.326 11.404V11.1091C114.326 11.0027 114.304 10.8975 114.261 10.7994C114.218 10.7012 114.156 10.6121 114.078 10.5372C113.999 10.4622 113.906 10.4028 113.803 10.3624C113.701 10.322 113.591 10.3013 113.48 10.3016H110.931V22.7805C110.931 22.8867 110.953 22.9919 110.996 23.0899C111.039 23.1878 111.101 23.2768 111.18 23.3516C111.258 23.4264 111.352 23.4855 111.454 23.5257C111.556 23.5658 111.666 23.5862 111.777 23.5856H114.314V16.3304C114.314 14.0767 115.684 13.316 116.73 13.316C118.192 13.316 119.391 14.1469 119.391 16.2345V22.7875C119.392 23.0019 119.482 23.207 119.641 23.3579C119.799 23.5088 120.014 23.5932 120.237 23.5926H122.752V16.1034C122.752 12.4524 120.71 10.4912 117.251 10.4912Z" fill="#F6F9FF"/>
<path d="M149.425 11.4438C148.438 10.6832 146.988 10.2947 145.14 10.2947C144.418 10.2969 143.698 10.3454 142.983 10.4398C142.388 10.517 141.547 10.627 140.962 10.7581C140.718 10.8096 140.682 10.9921 140.682 11.2051V12.9253C140.682 13.2318 140.682 13.5103 141.021 13.4331C141.645 13.2857 142.859 13.0235 143.188 12.965C143.744 12.8791 144.308 12.8376 144.872 12.841C145.803 12.841 146.512 13.0001 146.98 13.3091C147.448 13.618 147.646 14.1774 147.646 14.9988V15.0971C147.48 15.0831 147.297 15.069 147.1 15.0573C146.729 15.0324 146.254 15.0199 145.674 15.0199C144.906 15.0172 144.141 15.1036 143.395 15.2773C142.702 15.4372 142.043 15.7087 141.445 16.0801C140.883 16.432 140.413 16.9038 140.073 17.4586C139.727 18.0463 139.552 18.7122 139.566 19.387C139.548 20.0456 139.697 20.6986 139.999 21.2897C140.292 21.8223 140.719 22.2755 141.243 22.6074C141.826 22.9678 142.477 23.2172 143.158 23.3422C143.961 23.4963 144.778 23.57 145.596 23.5622C146.247 23.5622 150.934 23.499 150.934 21.3389V15.1088C150.931 13.4518 150.424 12.2185 149.425 11.4438ZM147.646 20.9036C147.387 20.9527 147.104 20.9902 146.797 21.0182C146.062 21.0862 145.322 21.0862 144.587 21.0182C144.294 20.9909 144.009 20.9115 143.746 20.7842C143.501 20.6667 143.292 20.491 143.139 20.274C142.961 19.9929 142.876 19.6664 142.895 19.3379C142.874 19.0622 142.931 18.7862 143.059 18.539C143.188 18.2919 143.384 18.0827 143.626 17.9336C144.141 17.6107 144.921 17.4468 145.944 17.4468C146.222 17.4468 146.559 17.4632 146.956 17.4936C147.217 17.5124 147.443 17.5334 147.65 17.5522L147.646 20.9036Z" fill="#F6F9FF"/>
<path d="M187.583 10.2947C184.009 10.2947 182.576 12.8059 182.576 15.4435V22.6284C182.575 22.8788 182.677 23.1196 182.859 23.2984C183.042 23.4772 183.29 23.5796 183.551 23.5833H185.962V16.0239C185.962 14.739 186.308 13.955 186.954 13.5525C187.463 13.164 188.463 12.8948 190.391 13.611V11.3923C190.4 10.971 189.672 10.2947 187.583 10.2947Z" fill="#F6F9FF"/>
<path d="M174.07 10.2947C170.582 10.2947 167.732 12.6912 167.732 16.0379V17.8494C167.732 21.1985 170.584 23.5786 174.07 23.5786C177.558 23.5786 180.407 21.1985 180.407 17.8494V16.0379C180.409 12.6912 177.56 10.2947 174.07 10.2947ZM177.073 18.067C177.073 19.6515 175.725 20.7046 174.075 20.7046C172.424 20.7046 171.077 19.6515 171.077 18.067V15.8062C171.077 14.2242 172.424 13.1687 174.075 13.1687C175.725 13.1687 177.073 14.2359 177.073 15.8062V18.067Z" fill="#F6F9FF"/>
<path d="M131.171 10.2386C129.555 10.2184 127.989 10.7813 126.784 11.816C126.201 12.3289 125.738 12.9538 125.423 13.6502C125.108 14.3466 124.95 15.0988 124.958 15.8578V17.4001C124.958 20.6766 127.757 23.0334 131.176 23.0334C132.197 23.0389 133.206 22.8195 134.125 22.3921C134.047 23.4476 133.723 24.234 133.151 24.7325C132.529 25.2824 132.041 25.4697 130.789 25.4697C128.963 25.4697 128.385 24.3603 128.108 24.3603H125.643C125.643 24.3603 125.322 24.6131 126.45 26.0758C127.089 26.902 128.03 27.686 130.179 27.9481C131.33 28.0802 132.497 27.9594 133.592 27.5947C133.849 27.5014 134.099 27.3911 134.34 27.2647C134.871 27.0006 135.352 26.6525 135.763 26.235C136.338 25.6425 136.766 24.9328 137.014 24.1591C137.28 23.3252 137.411 22.4568 137.401 21.5847V15.8508C137.389 12.5742 134.591 10.2386 131.171 10.2386ZM134.111 17.6271C134.111 19.1811 132.787 20.2155 131.171 20.2155C129.555 20.2155 128.229 19.1811 128.229 17.6271V15.6401C128.229 14.0861 129.553 13.0517 131.171 13.0517C132.79 13.0517 134.111 14.0861 134.111 15.6401V17.6271Z" fill="#F6F9FF"/>
</g>
<defs>
<clipPath id="clip0">
<rect width="204" height="28" fill="white"/>
</clipPath>
</defs>
</svg>
